<svg width="13" height="13" viewBox="0 0 13 13" fill="none" xmlns="http://www.w3.org/2000/svg">
<path d="M6.13788 4.09215C5.01054 4.09215 4.09054 5.01217 4.09054 6.13953C4.09054 7.2669 5.01054 8.18692 6.13788 8.18692C7.26523 8.18692 8.18523 7.2669 8.18523 6.13953C8.18523 5.01217 7.26523 4.09215 6.13788 4.09215ZM12.2784 6.13953C12.2784 5.29171 12.2861 4.45156 12.2385 3.60526C12.1908 2.62227 11.9666 1.74987 11.2478 1.03106C10.5275 0.310713 9.65662 0.0880044 8.67364 0.0403908C7.82583 -0.00722278 6.9857 0.000456851 6.13942 0.000456851C5.29161 0.000456851 4.45147 -0.00722278 3.6052 0.0403908C2.62223 0.0880044 1.74984 0.312249 1.03104 1.03106C0.310707 1.75141 0.0880027 2.62227 0.04039 3.60526C-0.00722264 4.45309 0.000456842 5.29324 0.000456842 6.13953C0.000456842 6.98583 -0.00722264 7.82751 0.04039 8.67381C0.0880027 9.65679 0.312243 10.5292 1.03104 11.248C1.75137 11.9684 2.62223 12.1911 3.6052 12.2387C4.45301 12.2863 5.29314 12.2786 6.13942 12.2786C6.98723 12.2786 7.82737 12.2863 8.67364 12.2387C9.65662 12.1911 10.529 11.9668 11.2478 11.248C11.9681 10.5277 12.1908 9.65679 12.2385 8.67381C12.2876 7.82751 12.2784 6.98736 12.2784 6.13953ZM6.13788 9.28971C4.39465 9.28971 2.98777 7.88281 2.98777 6.13953C2.98777 4.39626 4.39465 2.98936 6.13788 2.98936C7.88112 2.98936 9.288 4.39626 9.288 6.13953C9.288 7.88281 7.88112 9.28971 6.13788 9.28971ZM9.41702 3.59605C9.01 3.59605 8.68132 3.26736 8.68132 2.86034C8.68132 2.45332 9.01 2.12464 9.41702 2.12464C9.82403 2.12464 10.1527 2.45332 10.1527 2.86034C10.1528 2.95699 10.1339 3.05271 10.097 3.14203C10.06 3.23134 10.0058 3.3125 9.9375 3.38084C9.86916 3.44918 9.78801 3.50336 9.6987 3.54029C9.60938 3.57722 9.51366 3.59617 9.41702 3.59605Z" fill="#81492C"/>
</svg>
