<svg width="66" height="93" viewBox="0 0 66 93" fill="none" xmlns="http://www.w3.org/2000/svg">
<path d="M51.227 20.7771L51.1769 20.7263C51.1769 20.7263 51.0892 20.8152 51.0767 20.8787C51.0516 20.9295 51.0516 20.993 51.0391 21.0565H51.1017L51.227 20.7898V20.7771Z" fill="#B4846C"/>
<path d="M56.6394 18.2244C51.9027 10.1347 44.4218 4.43262 36.2642 3.20076C36.0261 3.16266 35.7755 3.13726 35.5374 3.11186C35.3495 3.08646 35.174 3.06107 34.9861 3.04837C34.7229 3.02297 34.4598 3.01027 34.1841 2.99757C34.0087 2.99757 33.8332 2.97217 33.6703 2.97217C33.4323 2.97217 33.1942 2.97217 32.9561 2.97217C32.7556 2.97217 32.5551 2.97217 32.3421 2.97217C32.129 2.97217 31.916 2.99757 31.7155 3.01027C31.49 3.02297 31.2644 3.03567 31.0263 3.06107C30.7882 3.08646 30.5752 3.11186 30.3371 3.13726C30.1366 3.16266 29.9361 3.17536 29.7482 3.21346C27.4425 3.55635 25.1995 4.26753 23.0567 5.27079C22.8186 5.38509 22.5931 5.48669 22.355 5.61368C22.2798 5.65178 22.1921 5.68988 22.1169 5.72798C14.0721 9.80455 8.58357 17.564 5.47592 26.314C3.08253 32.74 1.96728 39.6486 1.92969 46.4937C1.97981 56.3485 4.26043 66.3177 9.36048 74.7756C14.0971 82.8653 21.5781 88.5674 29.7357 89.7993C29.9863 89.8374 30.2369 89.8628 30.475 89.8882C30.6504 89.9136 30.8258 89.939 31.0138 89.9517C31.2769 89.9771 31.5526 89.9898 31.8158 90.0025C31.9912 90.0025 32.1541 90.0279 32.3295 90.0279C32.5676 90.0279 32.8057 90.0279 33.0438 90.0279C33.2443 90.0279 33.4448 90.0279 33.6578 90.0279C33.8708 90.0279 34.0713 90.0025 34.2844 89.9898C34.5099 89.9771 34.748 89.9644 34.9735 89.939C35.1991 89.9136 35.4247 89.8882 35.6502 89.8628C35.8507 89.8374 36.0512 89.812 36.2517 89.7866C44.4218 88.5674 51.9027 82.8526 56.6394 74.7629C61.7269 66.305 64.0201 56.3358 64.0702 46.481C64.0201 36.6261 61.7395 26.6569 56.6394 18.199V18.2244ZM55.9251 74.3439C50.7374 83.3733 42.1788 89.4437 32.9937 89.5453C23.8211 89.4183 15.2625 83.3479 10.0873 74.3439C5.12506 66.0129 2.93216 56.1834 2.91962 46.5064C2.91962 39.4962 4.08499 32.4225 6.6037 25.8822C9.36048 18.8721 13.5959 12.5604 19.6608 8.0139C19.8989 7.83611 20.137 7.67102 20.3876 7.50592C24.2471 4.9787 28.5578 3.51825 33.0187 3.46745C42.1913 3.59445 50.7499 9.66485 55.9251 18.6689C60.8874 26.9998 63.0802 36.8293 63.0928 46.5064C63.0928 56.1834 60.8874 66.0129 55.9251 74.3439Z" fill="#B4846C"/>
<path d="M58.093 16.3448C54.835 10.7443 50.349 6.21055 45.2238 3.35314C41.1764 1.01642 37.0287 -0.024946 32.9687 0.000453172C29.3974 0.000453172 25.7634 0.800527 22.1796 2.59117C22.0292 2.66737 21.8914 2.74356 21.7536 2.80706C21.5405 2.92136 21.315 3.02296 21.102 3.14995C12.3304 7.8615 6.49098 16.6369 3.27055 26.3775C1.07765 32.8289 0.0250617 39.6867 0 46.5063C0.0501234 57.0089 2.48111 67.6385 7.90697 76.6552C11.165 82.2557 15.651 86.7894 20.7636 89.6468C24.8111 91.9836 28.9713 93.0249 33.0313 92.9995C37.0788 93.0122 41.214 91.9709 45.2489 89.6342C50.3615 86.764 54.835 82.243 58.093 76.6425C63.5189 67.6258 65.9499 56.9962 66 46.4936C65.9499 35.9911 63.5189 25.3615 58.093 16.3448ZM57.7798 76.4647C52.1785 86.1799 42.8931 92.6821 32.9812 92.7583C23.0818 92.6694 13.8215 86.1545 8.22024 76.4647C2.86957 67.4861 0.501234 56.92 0.488703 46.5063C0.488703 40.0042 1.41599 33.4512 3.40839 27.2538L3.44598 27.1268C3.59635 26.6823 3.74672 26.2378 3.89709 25.7933C3.98481 25.5393 4.08506 25.2726 4.17277 25.0186C4.2229 24.8789 4.28555 24.7266 4.33568 24.5869C7.26789 16.9036 11.8918 9.99503 18.5582 5.09299C18.6459 5.02949 18.7336 4.96599 18.8213 4.90249C23.1445 1.98159 27.9939 0.292544 33.0188 0.254445C42.9182 0.356042 52.1785 6.85823 57.7798 16.548C63.1304 25.5139 65.4988 36.08 65.5113 46.5063C65.5113 56.9327 63.1304 67.4988 57.7798 76.4647Z" fill="#B4846C"/>
<path d="M59.3328 57.1613C58.7438 57.047 58.1549 56.9708 57.5785 56.8565C55.7239 56.4882 53.8694 56.0564 51.9647 55.9802C51.288 55.9548 50.6239 55.8406 49.8971 55.7644C54.1701 54.5071 58.4682 53.6689 62.5407 52.1069C62.5407 51.7767 62.4404 51.637 62.1773 51.6624C61.8766 51.7005 61.5633 51.6878 61.25 51.7386C59.7589 51.9672 58.2677 51.9545 56.764 51.9672C55.2728 51.9672 53.7691 52.0434 52.2779 52.1069C51.6013 52.1323 50.9246 52.2466 50.2605 52.3101C50.7492 52.0561 51.2755 51.891 51.7892 51.7132C53.7942 51.0274 55.7991 50.3416 57.7915 49.6305C58.8316 49.2622 59.8466 48.8431 60.8616 48.424C61.1122 48.3224 61.3377 48.1192 61.5508 47.9287C61.6259 47.8652 61.6635 47.662 61.6259 47.5731C61.5884 47.4842 61.4129 47.408 61.3127 47.408C61.0245 47.4334 60.7488 47.4969 60.4731 47.5858C59.6461 47.8271 58.8441 48.1319 58.0045 48.3097C55.9244 48.7288 53.932 49.44 51.9271 50.1384C51.2003 50.3924 50.461 50.6337 49.7342 50.8877C51.6514 49.5416 53.5937 48.2589 55.5735 47.0651C57.5785 45.8587 59.6335 44.7538 61.7387 43.56C61.3503 43.3442 61.037 43.3315 60.6987 43.5093C60.3102 43.7251 59.9343 43.9664 59.5208 44.0934C58.5183 44.4236 57.5033 44.7157 56.4883 45.0205C55.8993 45.1983 55.3104 45.3888 54.7214 45.5539C53.8318 45.8079 52.9295 45.9984 52.0398 46.2905C50.3106 46.8492 48.6941 47.6493 47.0651 48.4494C46.9147 48.5256 46.7393 48.5764 46.4511 48.6907C46.9899 48.2081 47.3909 47.8398 47.8044 47.4842C48.7442 46.646 49.6715 45.7825 50.6489 44.9697C51.714 44.068 52.8168 43.2045 53.9195 42.3536C54.8092 41.6551 55.7114 40.982 56.6261 40.309C57.9168 39.3565 59.0947 38.2897 60.0972 37.0198C60.1849 36.9055 60.235 36.7658 60.2977 36.6388C59.809 36.2832 59.3829 36.4229 58.9443 36.6388C58.418 36.8801 57.9043 37.1214 57.3905 37.3881C56.6637 37.7563 55.9369 38.1246 55.2352 38.5437C54.4583 39.0009 53.7064 39.5216 52.9546 40.0169C52.4534 40.3471 51.9647 40.6772 51.4634 41.0074C50.9873 41.2995 50.5111 41.5789 49.9347 41.9218C50.0098 41.7567 50.0224 41.7186 50.0474 41.6805C51.6013 39.8391 53.2929 38.15 54.9846 36.461C55.749 35.699 56.5008 34.8989 57.2401 34.1116C57.3279 34.01 57.378 33.8576 57.5158 33.6036C57.2276 33.6544 57.0397 33.629 56.9269 33.7052C56.6261 33.9338 56.363 34.2005 56.0873 34.4544C54.4332 35.9911 52.8042 37.5531 51.1251 39.0771C49.9096 40.182 48.6565 41.236 47.3909 42.2774C47.0275 42.5822 46.5889 42.8108 46.1879 43.0648L46.1128 42.9632C46.3007 42.7219 46.4887 42.4806 46.6892 42.2393C47.2531 41.5789 47.8169 40.9185 48.3808 40.2709C48.5688 40.055 48.7693 39.8391 48.9573 39.6232C49.8971 38.5818 50.887 37.5912 51.7642 36.5118C53.2804 34.6195 54.734 32.6765 56.2001 30.7589C56.3505 30.5557 56.4382 30.3144 56.551 30.1112C56.2878 29.8572 56.1249 29.8953 55.9244 30.0858C55.7364 30.2636 55.5234 30.4287 55.2979 30.5684C54.12 31.2668 53.0047 32.0542 51.9897 32.994C51.0624 33.8449 50.0976 34.6576 49.1452 35.4831C49.0074 35.5974 48.8695 35.7117 48.7442 35.8387C47.5162 37.0833 46.2631 38.3151 45.0602 39.5978C43.8823 40.8423 42.767 42.1377 41.6142 43.395C41.5265 43.4965 41.4262 43.5728 41.326 43.6616C41.4387 43.1918 41.6392 42.7981 41.8773 42.4298C42.9675 40.7788 44.0702 39.1406 45.1604 37.4769C45.5614 36.8674 45.9373 36.2324 46.2757 35.5847C47.1779 33.8703 48.055 32.1431 48.9447 30.416C49.5462 29.2476 50.1727 28.092 50.7617 26.9236C50.9747 26.4918 51.1376 26.0219 51.3005 25.552C51.3506 25.4123 51.3256 25.1837 51.2253 25.0822C51.0624 24.9044 50.8745 24.9933 50.7116 25.1583C50.4986 25.3869 50.273 25.5901 50.06 25.8314C49.4961 26.4918 48.9573 27.1649 48.3808 27.8126C47.7167 28.5618 47.0651 29.3238 46.3508 30.0223C44.9599 31.3811 43.7319 32.8543 42.8171 34.5814C42.1279 35.8768 41.4011 37.1595 40.737 38.4675C39.9977 39.9153 39.321 41.3884 38.6193 42.8616C38.3812 43.3696 38.1431 43.8648 37.7171 44.2585C38.1181 42.8362 38.6318 41.4646 39.2709 40.1439C39.8097 39.039 40.4112 37.9722 40.9375 36.8674C41.8272 35.0005 42.7044 33.121 43.6066 31.2542C44.8847 28.6126 45.9624 25.8695 47.1027 23.1518C47.2405 22.8089 47.2781 22.4279 47.3533 22.1104C47.0526 21.8819 46.8395 21.8438 46.6516 22.1104C46.5012 22.3263 46.3383 22.5422 46.2005 22.7581C45.8621 23.3296 45.5614 23.9392 45.1855 24.4853C44.0828 26.0727 42.9299 27.6348 41.8397 29.2222C41.326 29.9715 40.8498 30.7589 40.4613 31.5843C40.0228 32.486 39.6844 33.4385 39.3085 34.3528C39.2584 34.4798 39.1707 34.5814 39.108 34.6957C39.0704 34.5052 39.0955 34.3528 39.1331 34.2132C39.5591 32.4606 40.0228 30.7081 40.4112 28.9428C40.8498 26.9998 41.2383 25.0568 41.2633 23.0502C41.2884 21.1707 41.1129 19.3038 41.3134 17.4243C41.326 17.2592 41.2633 17.0814 41.2383 16.9417C40.8999 16.8147 40.8122 17.0052 40.7245 17.2338C40.4112 17.9958 40.123 18.7705 39.7721 19.5197C37.9802 23.228 36.6645 27.1014 35.4365 31.0256C35.2234 31.7113 34.9854 32.3971 34.7723 33.0956C34.647 32.8543 34.647 32.6384 34.647 32.4225C34.6094 30.035 34.6094 27.6475 34.5342 25.2599C34.4967 24.0154 34.3463 22.7708 34.2335 21.5263C34.1207 20.1293 34.0205 18.7197 33.8701 17.3227C33.8325 16.9544 33.6947 16.5861 33.5694 16.2305C33.4817 16.0019 33.2937 15.9004 33.0932 15.9892C32.2787 21.2088 32.1033 26.4537 31.3138 31.6351C31.1885 31.4573 31.1259 31.2668 31.0632 31.0891C30.6747 29.8953 30.2863 28.7142 29.9104 27.5205C28.7826 23.99 27.1661 20.65 25.7501 17.2338C25.7251 17.1703 25.7 17.1068 25.6624 17.056C25.5496 16.8528 25.3993 16.8655 25.1737 16.9798C25.1737 17.3354 25.1737 17.7037 25.1737 18.0847C25.1862 19.0879 25.2865 20.0912 25.2238 21.0945C25.086 23.4439 25.3617 25.7425 25.8629 28.0158C26.314 30.0604 26.8278 32.0923 27.3165 34.137C27.3541 34.2894 27.3541 34.4417 27.3791 34.5814L27.2413 34.6068C26.928 33.8449 26.6398 33.0829 26.314 32.3336C26.0509 31.724 25.8128 31.0764 25.4494 30.5303C24.5472 29.1587 23.5948 27.8126 22.6425 26.4664C21.7778 25.2472 20.9257 24.0281 20.224 22.7073C20.0862 22.4533 19.9107 22.2247 19.7102 22.0216C19.6351 21.9454 19.422 21.9454 19.3093 21.9835C19.2341 22.0089 19.1464 22.1993 19.1589 22.3009C19.2341 22.6692 19.3093 23.0502 19.4471 23.3931C20.224 25.3107 21.0135 27.2284 21.828 29.1333C22.1914 29.9969 22.6299 30.8224 23.0309 31.6605C23.5572 32.74 24.1086 33.8068 24.6223 34.8989C25.0609 35.8006 25.4368 36.7404 25.9005 37.6166C26.9405 39.5597 27.8929 41.5535 28.5821 43.6616C28.6322 43.814 28.6698 43.9791 28.7074 44.1442L28.5696 44.2077C28.3189 43.7505 28.0433 43.2934 27.8177 42.8235C27.2538 41.617 26.7401 40.3725 26.1386 39.1914C25.2865 37.5277 24.3341 35.9149 23.4695 34.264C22.7678 32.9305 21.828 31.7748 20.7879 30.7081C19.3469 29.2222 17.9309 27.7237 16.6277 26.1235C16.352 25.7806 16.0136 25.4758 15.7254 25.1456C15.4999 24.8917 15.3119 24.9806 15.0864 25.171C15.1615 25.806 15.4122 26.3648 15.6878 26.9236C16.4522 28.4348 17.2166 29.9461 18.006 31.4446C18.9835 33.2988 19.9107 35.1783 20.9759 36.9817C22.0535 38.7977 23.2941 40.5122 24.4594 42.2774C24.6975 42.633 24.898 43.0013 25.111 43.3696C25.1737 43.4839 25.1988 43.6236 25.2363 43.7505C25.0734 43.687 24.9857 43.5855 24.898 43.4839C23.7702 42.2266 22.6675 40.9566 21.5022 39.7248C20.4872 38.6453 19.3844 37.642 18.3694 36.5499C17.8056 35.953 17.2291 35.3688 16.5399 34.9116C16.4522 34.8481 16.3645 34.7846 16.2768 34.7084C15.4623 33.9592 14.6603 33.1972 13.8458 32.4479C13.5952 32.2193 13.332 32.0288 13.0564 31.8383C12.1917 31.2288 11.3146 30.6446 10.4374 30.035C10.1993 29.8699 10.0364 29.9334 9.861 30.1874C10.0114 30.4287 10.1492 30.6827 10.3246 30.8986C11.5903 32.5622 12.8559 34.2132 14.134 35.8768C14.5099 36.3721 14.9109 36.842 15.3244 37.3119C16.4773 38.6326 17.6427 39.9407 18.808 41.2487C19.0837 41.5662 19.3844 41.871 19.6601 42.1885C19.8857 42.4552 20.0987 42.7219 20.3117 42.9886L20.224 43.0902C19.823 42.8362 19.397 42.6076 19.0336 42.3155C18.1439 41.5916 17.2667 40.8423 16.4021 40.0804C15.1365 38.9628 13.8834 37.8452 12.6428 36.7023C11.6028 35.7371 10.5753 34.7592 9.54772 33.7814C9.34723 33.5909 9.18433 33.5909 8.94624 33.7814C9.02143 33.9084 9.05902 34.0354 9.14674 34.1243C9.4976 34.5179 9.84846 34.9243 10.2244 35.3053C11.7907 36.9055 13.3696 38.4929 14.936 40.1058C15.4372 40.6137 15.8758 41.1852 16.352 41.7186C16.164 41.744 16.0387 41.7059 15.9385 41.6297C15.2743 41.1979 14.6102 40.7534 13.9335 40.3344C13.1315 39.8264 12.3296 39.3057 11.5151 38.8358C10.6755 38.3405 9.8234 37.8833 8.9713 37.4261C8.4826 37.1722 7.98137 36.9436 7.48013 36.715C7.01649 36.4991 6.55285 36.334 6.05162 36.7658C7.00396 38.1119 8.18186 39.1533 9.40989 40.1312C10.3622 40.8931 11.3647 41.5789 12.3421 42.3155C13.0188 42.8235 13.6704 43.3442 14.322 43.8775C15.337 44.703 16.3394 45.5285 17.3294 46.3921C18.1564 47.1159 18.9459 47.8779 19.7478 48.6145C19.2967 48.5002 18.8957 48.2843 18.4822 48.1065C17.1915 47.5477 15.9134 46.9127 14.5851 46.4556C13.0689 45.9222 11.5025 45.5539 9.94871 45.1094C9.58532 45.0078 9.24698 44.8427 8.88359 44.7665C7.74328 44.5506 6.66563 44.195 5.67569 43.5728C5.34989 43.3696 5.02409 43.3823 4.67322 43.6489C6.71575 44.7919 8.73322 45.8714 10.7006 47.0524C12.6554 48.2208 14.5601 49.4908 16.4898 50.7226L16.4146 50.8623C15.7254 50.6337 15.0488 50.3924 14.3596 50.1765C12.9185 49.7066 11.4649 49.2241 10.0114 48.7923C8.59538 48.3732 7.16686 48.0049 5.75088 47.6112C5.4376 47.5223 5.12433 47.3953 4.77347 47.5477C4.59804 48.0176 4.96143 48.2081 5.24964 48.3732C5.77594 48.6526 6.31476 48.9193 6.86612 49.1225C7.91871 49.5289 8.97131 49.8971 10.0364 50.2527C11.8785 50.875 13.7205 51.4846 15.5625 52.0942C15.738 52.1577 15.9134 52.2339 16.0763 52.3101C15.8132 52.3609 15.5751 52.3101 15.337 52.2974C14.5225 52.2085 13.7205 52.0815 12.906 52.0561C11.5903 52.018 10.262 52.0561 8.93371 52.0561C8.20692 52.0561 7.48013 52.018 6.75334 51.9799C5.91378 51.9291 5.08674 51.8529 4.2597 51.7513C3.94643 51.7132 3.80859 51.8148 3.80859 52.1831C4.71082 52.5006 5.58797 52.8434 6.4902 53.1101C8.45754 53.6689 10.4499 54.1896 12.4298 54.723C13.5576 55.0278 14.6854 55.3072 15.8132 55.5993C15.9886 55.6501 16.164 55.6755 16.352 55.7136C15.9886 55.8659 15.6252 55.9295 15.2618 55.9548C14.5851 56.0183 13.8959 56.031 13.2193 56.1326C11.7406 56.3612 10.2745 56.6406 8.79587 56.8946C8.20692 56.9962 7.61797 57.0978 7.04155 57.1994C6.86612 57.2248 6.64057 57.2375 6.66563 57.4661C6.67816 57.6058 6.82853 57.7582 6.96637 57.8344C7.15433 57.9487 7.36736 58.0249 7.58038 58.0503C8.10668 58.1265 8.63297 58.2281 9.15927 58.2281C11.2519 58.2535 13.3446 58.2789 15.4372 58.2662C17.2918 58.2535 19.1338 58.1773 20.9884 58.1392C21.2265 58.1392 21.4771 58.1646 21.7277 58.1773V58.3297C21.1012 58.5075 20.4746 58.6853 19.8481 58.8758C17.8933 59.4345 15.9385 59.9679 13.9962 60.5394C13.2318 60.768 12.505 61.0728 11.7657 61.3776C11.4399 61.5173 11.064 61.6951 11.1642 62.2538C11.3898 62.2284 11.6028 62.2157 11.8033 62.1776C12.2419 62.1014 12.6679 62.0126 13.1065 61.9237C15.9009 61.3903 18.6952 60.8823 21.4896 60.3235C22.2415 60.1711 22.9683 59.879 23.6951 59.6631C24.0835 59.5488 24.472 59.4599 24.8479 59.3583L24.898 59.4853C24.5973 59.6631 24.2965 59.8409 24.0083 60.0314C22.6174 60.9331 21.2014 61.7967 19.823 62.7364C18.3569 63.727 16.9409 64.7938 15.4873 65.8097C15.2117 66.0002 15.2493 66.1907 15.4873 66.4828C16.0011 66.2542 16.5399 66.051 17.0412 65.797C18.3444 65.1367 19.6225 64.4255 20.9257 63.7778C22.6425 62.9269 24.4218 62.1903 26.0509 61.149C26.4393 60.895 26.8528 60.6791 27.2538 60.4505C28.3189 59.8536 29.3715 59.244 30.2863 58.4313C30.963 57.8344 31.2261 57.8344 31.9028 58.4313C32.1158 58.6218 32.2662 58.8758 32.404 59.117C32.8175 59.8282 32.8802 60.641 32.993 61.4411C33.1934 62.9142 33.1433 64.4001 33.0556 65.924C32.9554 65.8859 32.9303 65.7843 32.8802 65.7335C32.2411 65.124 31.6271 64.4763 30.9504 63.9048C30.2738 63.3333 29.4342 63.1174 28.557 63.0285C28.4317 63.0285 28.3064 63.1047 28.0934 63.1809C28.5946 63.4095 29.0207 63.5492 29.3841 63.7778C30.7123 64.5779 31.6772 65.7208 32.3288 67.1305C32.7549 68.0449 33.1809 68.9465 33.2812 69.9752C33.2812 70.0641 33.2937 70.1657 33.3438 70.2292C33.4065 70.3054 33.5192 70.407 33.5944 70.3943C33.7072 70.3943 33.82 70.2927 33.8952 70.2038C33.9453 70.153 33.9453 70.0387 33.9578 69.9498C34.0581 68.883 34.5092 67.9179 34.9728 66.9908C35.8249 65.289 37.0279 63.9302 38.895 63.3333C38.9576 63.3079 39.0078 63.2444 39.1331 63.1428C38.92 63.092 38.7947 63.0285 38.6694 63.0412C37.667 63.1555 36.7522 63.4857 35.9628 64.1715C35.2485 64.7938 34.5217 65.3906 33.9829 66.2161C33.8826 65.5049 33.7824 64.8192 33.8325 64.1334C33.9077 62.9523 34.0455 61.7713 34.221 60.6029C34.3212 59.9044 34.5342 59.2059 34.7347 58.5329C34.8851 58.0249 35.1984 57.9233 35.662 58.1646C35.8124 58.2408 35.9502 58.3551 36.1006 58.4694C36.4891 58.7615 36.865 59.0789 37.2785 59.3329C38.3562 59.9933 39.4338 60.6283 40.5365 61.2506C41.4638 61.7713 42.3786 62.3046 43.3309 62.7618C45.0852 63.6 46.8521 64.4001 48.5437 65.3779C49.2956 65.8224 50.085 66.2288 50.9246 66.4447C51.1627 66.1907 51.1752 66.0129 50.8995 65.8097C50.3356 65.416 49.8094 64.9716 49.2455 64.5779C48.1052 63.7778 46.9648 62.9777 45.7995 62.2157C44.5088 61.3649 43.1805 60.5648 41.8773 59.7393C41.7395 59.6504 41.6142 59.5488 41.4889 59.4599L41.539 59.3202C45.9624 60.9331 50.6239 61.3395 55.1976 62.2919C55.1976 61.7459 55.1976 61.7332 54.9721 61.5808C54.7966 61.4538 54.5961 61.3395 54.3956 61.276C53.3305 60.9077 52.2779 60.5267 51.2003 60.2092C49.1953 59.6123 47.1779 59.0535 45.1604 58.4821C44.9975 58.4313 44.8471 58.3551 44.6842 58.2916C45.411 58.1519 46.0877 58.0884 46.7644 58.1138C48.857 58.1646 50.9497 58.2789 53.0423 58.317C54.8217 58.3551 56.6136 58.3551 58.393 58.1138C58.7564 58.063 59.1072 57.9233 59.4706 57.809C59.6461 57.7582 59.8215 57.6185 59.7213 57.4153C59.6711 57.301 59.4957 57.2121 59.3704 57.1867L59.3328 57.1613ZM26.2388 37.2865C26.0258 36.8928 25.8754 36.4737 25.6875 36.0673C24.9231 34.429 24.1211 32.8162 23.3943 31.1653C22.5673 29.2857 21.7904 27.3935 20.9884 25.5012C20.8756 25.2345 20.7628 24.9806 20.7378 24.6631C20.8004 24.7266 20.8756 24.7774 20.9257 24.8536C22.1412 26.6696 23.3693 28.4602 24.5346 30.3017C24.9481 30.9494 25.2238 31.6859 25.5371 32.3971C26.1135 33.6798 26.5897 35.0005 27.2413 36.2451C28.6072 38.8612 29.3339 41.6932 30.0357 44.5252C30.2863 45.5412 30.4868 46.5699 30.7123 47.5858L30.5494 47.6239C30.1234 46.5191 29.6597 45.4396 29.2838 44.322C28.4568 41.8837 27.4167 39.547 26.2263 37.2738L26.2388 37.2865ZM24.5722 41.0963C22.5798 38.1754 20.6501 35.2164 19.0837 32.0288C18.3945 30.6319 17.5925 29.2984 16.8532 27.9269C16.5775 27.4316 16.3269 26.9109 16.0638 26.4029L16.1515 26.3521C16.9911 27.3554 17.8306 28.3459 18.6827 29.3365C18.9459 29.6413 19.209 29.9461 19.4847 30.2255C20.7628 31.47 21.8781 32.8416 22.7302 34.4163C23.5447 35.9403 24.4344 37.4389 25.2489 38.9755C25.8754 40.1566 26.4393 41.363 27.0408 42.5568C27.141 42.76 27.2037 42.9759 27.329 43.1537C28.3691 44.6776 28.933 46.4302 29.5595 48.1446C29.76 48.7034 29.9981 49.2495 30.1359 49.859C30.0231 49.7447 29.9104 49.6305 29.8101 49.5035C28.557 47.9668 27.4794 46.3159 26.6022 44.5252C26.0133 43.3315 25.3366 42.1885 24.5722 41.0709V41.0963ZM18.783 39.9153C17.9434 38.912 17.0286 37.9722 16.1515 37.0071C15.8257 36.6388 15.4999 36.2705 15.1991 35.8895C14.4097 34.8989 13.6328 33.8957 12.8559 32.9051C12.718 32.7273 12.5927 32.5495 12.5551 32.2701C12.718 32.3971 12.8809 32.4987 13.0313 32.6384C14.2092 33.6798 15.3871 34.7084 16.5525 35.7752C17.3795 36.5372 18.194 37.3373 18.9709 38.15C20.1864 39.4073 21.3894 40.6772 22.5798 41.9726C23.7452 43.2426 24.8479 44.5887 26.0383 45.8333C27.0032 46.8238 27.6423 47.9922 28.2187 49.2241C28.6573 50.1511 29.2086 51.0147 29.7099 51.9037C29.8226 52.1069 29.9229 52.3101 30.0858 52.6403C28.2688 51.0909 26.7651 49.4781 25.3366 47.7763C24.3592 46.6206 23.3442 45.5158 22.3417 44.3855C22.1538 44.1696 21.9533 43.9664 21.7653 43.7378C20.7628 42.4679 19.8105 41.1598 18.7704 39.9153H18.783ZM16.565 40.5883L20.0736 43.8521L19.9483 44.0045C18.7955 42.8997 17.4547 41.9853 16.4773 40.6899L16.5775 40.5883H16.565ZM18.1188 46.0873C17.1414 45.2237 16.139 44.3855 15.124 43.56C14.1967 42.8108 13.2318 42.0869 12.292 41.3503C10.9512 40.2963 9.53519 39.3438 8.30717 38.15C8.1568 37.9976 8.01896 37.8325 7.76834 37.5658C8.00643 37.6166 8.11921 37.6166 8.19439 37.6674C8.93371 38.0611 9.68556 38.4421 10.4124 38.8612C11.3271 39.3946 12.2293 39.9534 13.119 40.5248C14.0588 41.1344 15.0237 41.744 15.9134 42.4298C18.1564 44.1696 20.412 45.8587 22.6926 47.535C23.8204 48.3605 24.9481 49.186 25.9631 50.1511C27.1786 51.3068 28.2438 52.6149 29.3841 53.8594L29.2838 53.9991C29.0332 53.8721 28.7826 53.7832 28.5445 53.6308C27.2413 52.8054 25.9506 51.9418 24.6349 51.129C23.9958 50.7353 23.3191 50.4051 22.6675 50.0368C22.0159 49.6686 21.4395 49.1987 20.8881 48.6526C19.9985 47.7636 19.0461 46.9254 18.1063 46.0873H18.1188ZM15.4999 49.2495C14.6478 48.7034 13.7957 48.1319 12.9436 47.5985C12.0414 47.0397 11.1266 46.5064 10.2119 45.973C9.89859 45.7825 9.57279 45.6047 9.25951 45.4142C11.5151 45.9095 13.7456 46.3413 15.8257 47.3191C17.5424 48.1192 19.2717 48.9066 20.9884 49.7066C21.1137 49.7575 21.2265 49.8336 21.3267 49.9098C22.7051 50.9131 24.1462 51.8275 25.4368 52.9323C26.4393 53.7832 27.6172 54.3674 28.557 55.3072C28.3189 55.2183 28.0934 55.1421 27.8553 55.0532C26.5772 54.5706 25.299 54.088 24.0209 53.6054C23.5071 53.4022 22.9933 53.2117 22.4921 52.9704C20.813 52.145 19.1213 51.3195 17.4547 50.4686C16.7655 50.113 16.1264 49.6813 15.4748 49.2622L15.4999 49.2495ZM10.287 49.6178C9.18433 49.2368 8.08161 48.8558 6.9789 48.4748C6.85359 48.4367 6.74081 48.3605 6.57791 48.2843C7.69316 48.1954 17.3544 51.2941 18.7078 52.272C17.9058 52.0688 17.0788 51.9037 16.2893 51.6497C14.2844 50.9893 12.2795 50.2908 10.287 49.6178ZM10.9762 53.5292C9.77328 53.1863 8.55779 52.8815 7.27964 52.5387C7.36736 52.4879 7.43001 52.4244 7.49266 52.4244C8.70816 52.4498 9.91112 52.4371 11.1266 52.5387C12.6804 52.6657 14.2343 52.8942 15.7881 53.072C17.1414 53.2244 18.5073 53.3387 19.8606 53.5292C22.2665 53.8594 24.6098 54.469 26.8403 55.485C26.8779 55.4977 26.8904 55.5612 26.9405 55.6374C24.4344 55.5104 21.9658 55.4088 19.5098 55.5739C18.4572 55.6374 17.4547 55.3961 16.4522 55.1167C14.6353 54.596 12.8183 54.0499 10.9888 53.5419L10.9762 53.5292ZM27.6548 56.4755C27.3165 56.7041 26.9531 56.8057 26.5646 56.7676C25.4243 56.6533 24.2965 56.5136 23.1562 56.3866C23.0936 56.3866 23.0435 56.3358 22.843 56.2469C24.5597 56.1453 26.101 56.2469 27.6548 56.4628V56.4755ZM19.2341 57.4661C17.7554 57.4788 16.2768 57.5423 14.8107 57.5423C12.8308 57.5423 10.8509 57.4915 8.87106 57.4534C8.78334 57.4534 8.69563 57.428 8.57032 57.4026C8.63297 57.301 8.6455 57.2375 8.67056 57.2248C9.20939 57.1232 9.74822 56.9708 10.287 56.92C12.2168 56.7422 14.1465 56.5898 16.0763 56.4374C16.8908 56.3739 17.7053 56.3231 18.5198 56.2596C19.5599 56.1707 20.5874 56.2977 21.6149 56.4374C22.7051 56.5771 23.8078 56.6914 24.898 56.8184C25.1612 56.8438 25.4243 56.8819 25.7125 56.92C25.3491 57.2121 24.6725 57.4407 24.1336 57.4407C22.5046 57.4407 20.8756 57.4407 19.2466 57.4661H19.2341ZM15.4498 60.7045C16.1891 60.4759 16.9284 60.26 17.6552 60.0314C19.6351 59.4091 21.6024 58.7869 23.5823 58.1646C23.7326 58.1138 23.8705 58.0503 24.0209 58.0376C25.0484 57.9614 26.0634 57.8979 27.0909 57.8598C23.3191 59.2059 19.4722 60.3108 15.4372 60.7045H15.4498ZM20.036 63.1682C22.4044 61.3014 27.2789 58.4948 29.6973 57.8979C29.0457 58.6726 22.0034 62.5459 20.036 63.1682ZM26.7275 53.072C26.8528 53.1228 26.9781 53.1482 27.0909 53.2117C28.1686 53.8467 29.2462 54.4817 30.3239 55.104C30.5996 55.2564 30.8001 55.4596 30.9755 55.8533C29.3715 55.104 27.9806 54.2277 26.7275 53.072ZM30.8752 54.596C30.6497 54.342 30.4241 54.088 30.1986 53.834L30.3364 53.6943C30.562 53.9483 30.775 54.215 31.0005 54.469L30.8752 54.5833V54.596ZM31.0757 34.9243C30.9629 37.3119 30.8376 39.6994 30.7123 42.0742C30.6998 42.3917 30.6873 42.7219 30.6873 43.0394L30.562 43.0648C30.4868 42.8743 30.3991 42.6711 30.3364 42.4806C29.2713 39.4962 28.4818 36.4356 27.6924 33.3623C27.1536 31.2415 26.6523 29.1206 26.1762 26.9871C25.8002 25.2599 25.5747 23.5201 25.6875 21.7422C25.7501 20.7897 25.6875 19.8245 25.6875 18.8721L25.8378 18.8213C26.101 19.3927 26.3892 19.9642 26.6398 20.5484C28.3064 24.3202 29.5971 28.2443 30.8627 32.1685C31.1634 33.0956 31.1133 34.01 31.0632 34.9497L31.0757 34.9243ZM53.1551 52.6911C54.4207 52.5641 55.6989 52.5387 56.977 52.4625C57.5284 52.4371 58.0797 52.4244 58.6311 52.4117C58.7313 52.4117 58.819 52.4371 58.9193 52.4625V52.5514C58.5058 52.6657 58.0922 52.7673 57.6787 52.8815C55.7239 53.4022 53.7691 53.9356 51.8143 54.4563C51.3506 54.5833 50.8745 54.723 50.4234 54.8881C48.8946 55.485 47.3157 55.6501 45.6867 55.4977C44.7469 55.4088 43.7945 55.4723 42.8422 55.4977C41.6768 55.5231 40.5115 55.5739 39.296 55.612C39.4213 55.5231 39.509 55.4469 39.6092 55.3961C42.2783 54.215 45.0852 53.6054 47.9799 53.3387C49.7091 53.1736 51.4258 52.8689 53.1551 52.6911ZM43.2432 56.3612C42.5289 56.4374 41.8272 56.5136 41.1129 56.5898C40.6994 56.6406 40.2859 56.6787 39.8724 56.7422C39.4338 56.8057 39.0328 56.7041 38.6444 56.4628C40.1731 56.2215 41.7019 56.1453 43.2432 56.2215V56.3612ZM59.6586 48.2589C59.5709 48.3224 59.4832 48.3986 59.3829 48.4367C56.6637 49.3892 53.9445 50.3416 51.2128 51.256C50.2354 51.5862 49.2204 51.8402 48.2305 52.1196C48.0174 52.1831 47.8044 52.1958 47.5914 52.2339L47.5287 52.0561C51.501 50.5956 55.4858 49.1352 59.6586 48.2589ZM47.2531 48.7542C49.0074 47.916 50.7617 47.0778 52.6037 46.4683C53.4809 46.1762 54.3831 45.9857 55.2853 45.7444C55.8367 45.592 56.3755 45.4269 56.9269 45.2745L56.9895 45.4015C56.789 45.5285 56.5885 45.6682 56.3881 45.7825C55.7866 46.1381 55.16 46.4937 54.5585 46.8619C52.7917 47.9541 51.0374 49.0717 49.2705 50.1638C48.7317 50.494 48.1553 50.7988 47.5789 51.0782C45.3484 52.145 43.2056 53.3768 40.8122 54.088C40.0603 54.3166 39.3336 54.6595 38.5942 54.9516C38.3812 55.0405 38.1682 55.1167 37.9426 55.1929L37.8675 55.0532C38.2434 54.7865 38.6193 54.5198 38.9952 54.2658C39.2834 54.0626 39.6092 53.9102 39.8849 53.6943C41.1129 52.7799 42.3535 51.891 43.5314 50.9385C44.6592 50.0241 45.9373 49.3892 47.228 48.7669L47.2531 48.7542ZM49.9973 40.3217C49.6715 41.0709 47.7418 42.9505 46.6641 43.5982L46.5639 43.4966C47.6916 42.4552 48.8194 41.4138 50.0098 40.3217H49.9973ZM42.5665 43.2172C43.8823 41.7821 45.2231 40.3598 46.5764 38.9374C47.441 38.023 48.3432 37.1341 49.2329 36.2324C49.3457 36.1181 49.446 36.0038 49.5587 35.9022C50.8494 34.7592 52.1401 33.6036 53.4308 32.4606C53.5435 32.359 53.6689 32.2828 53.7816 32.2066L53.8819 32.2955C53.4809 32.8035 53.0674 33.3115 52.6664 33.8195C52.3281 34.2513 51.9772 34.683 51.6389 35.1275C50.5612 36.6007 49.3332 37.9468 48.0801 39.2549C47.8295 39.5089 47.6039 39.7756 47.3658 40.0423C47.1528 40.2963 46.9649 40.5756 46.7518 40.8296C46.025 41.7567 45.3233 42.6965 44.5715 43.5982C43.8823 44.4363 43.1555 45.2491 42.4287 46.0619C41.1505 47.5096 39.8724 48.9574 38.5692 50.3797C38.2684 50.7099 37.9301 50.9893 37.6168 51.2941C37.1657 51.7132 36.7271 52.1323 36.2008 52.5006C36.3637 52.2212 36.5266 51.9418 36.677 51.6624C37.3537 50.3924 38.0178 49.0971 38.7196 47.8398C38.9702 47.3826 39.2709 46.9254 39.6218 46.5318C40.5866 45.4015 41.5641 44.2839 42.5665 43.1918V43.2172ZM45.9624 44.322C45.7995 44.4617 45.6366 44.6141 45.4862 44.7538L45.4236 44.6903C45.5739 44.5379 45.7368 44.3855 45.8872 44.2331L45.9624 44.322ZM38.1431 44.5633C38.8699 43.1156 39.6218 41.6678 40.3611 40.2201C40.6117 39.7502 40.8623 39.2803 41.1129 38.8104C41.8773 37.4261 42.6793 36.0673 43.4061 34.6576C44.2958 32.9559 45.4611 31.4954 46.8145 30.1747C47.3784 29.6159 47.8671 28.9809 48.3808 28.3713C48.9071 27.7491 49.4334 27.1141 49.9597 26.4791C49.9973 26.441 50.06 26.4156 50.2354 26.314C49.9096 26.9617 49.6465 27.4824 49.3582 28.0031C48.8194 28.9936 48.243 29.9842 47.7167 30.9748C46.5388 33.1972 45.4486 35.4704 44.0326 37.5531C42.9926 39.0771 41.965 40.6137 40.9626 42.1631C40.4739 42.9251 40.0603 43.7505 39.6468 44.5633C38.7947 46.2905 37.7547 47.8779 36.5517 49.3892C36.464 49.4908 36.3763 49.5924 36.2886 49.694C36.2635 49.7194 36.2134 49.732 36.1131 49.7955C36.1507 49.6178 36.1633 49.4781 36.2134 49.3511C36.6269 48.2462 37.0404 47.1413 37.4665 46.0365C37.6544 45.5412 37.88 45.0459 38.1181 44.576L38.1431 44.5633ZM39.3586 35.5085C39.8849 34.302 40.336 33.0702 40.8999 31.8891C41.3636 30.9113 41.9024 29.9461 42.4913 29.0444C43.4186 27.6094 44.4086 26.2124 45.3734 24.8028C45.4361 24.7139 45.4737 24.6123 45.5113 24.5234L45.624 24.625C45.624 24.625 45.624 24.752 45.599 24.8028C44.7218 26.8728 43.8948 28.9682 42.955 31.0129C41.564 34.0735 40.0478 37.0706 38.6694 40.1312C37.9301 41.7694 37.3412 43.4839 36.6896 45.1602C36.3888 45.9476 36.063 46.7222 35.662 47.4842C35.662 47.408 35.637 47.3318 35.6495 47.2683C36.2259 44.3728 36.9151 41.5154 37.9176 38.7469C38.3186 37.642 38.9075 36.6007 39.3837 35.5212L39.3586 35.5085ZM32.9052 43.7886C32.7925 45.2745 32.83 46.7857 32.7925 48.2716C32.7925 48.4748 32.7925 48.678 32.7925 48.8812C32.8175 50.1765 32.8426 51.4719 32.8927 52.7673C32.9303 53.7451 32.9178 54.723 32.7173 55.7009C32.2787 54.5452 31.9654 53.3641 31.9278 52.145C31.9028 51.2179 31.7649 50.3289 31.6647 49.4146C31.5394 48.3478 31.4517 47.281 31.4391 46.2143C31.4266 44.1188 31.4391 42.0107 31.5143 39.9153C31.577 37.9468 31.6897 35.9911 31.8526 34.0354C32.0782 31.4827 32.3789 28.9301 32.6296 26.3775C32.7298 25.3996 32.7925 24.4218 32.8676 23.4439C32.9428 22.4406 33.0055 21.4374 33.0807 20.4341C33.0807 20.3198 33.1183 20.2182 33.1433 20.0531C33.206 20.1293 33.2686 20.1801 33.2812 20.2182C33.3689 21.2596 33.4441 22.3136 33.5192 23.355C33.5443 23.7106 33.5694 24.0662 33.607 24.4218C33.6195 24.625 33.6696 24.8155 33.6696 25.0187C33.6821 26.1997 33.6821 27.3808 33.6947 28.5618C33.7072 29.8064 33.7699 31.0637 33.7448 32.3082C33.7197 33.8068 33.5944 35.2926 33.5694 36.7912C33.5318 39.1406 33.0681 41.4519 32.9052 43.7886ZM33.5568 60.0187C33.2937 59.2567 33.5192 58.571 34.0079 57.9487C33.8576 58.6472 33.7072 59.3456 33.5568 60.0187ZM34.1708 48.7796C34.0957 49.059 34.033 49.3384 33.9704 49.6178H33.7824C33.7824 49.3765 33.7824 49.1479 33.7824 48.9066C33.845 47.4334 33.8952 45.9603 33.9829 44.4871C34.0455 43.3061 34.1709 42.125 34.246 40.9439C34.2962 40.0931 34.3337 39.2422 34.3212 38.404C34.2836 36.2705 34.8099 34.2386 35.4114 32.232C36.6144 28.257 37.9552 24.3329 39.6218 20.5357C39.8724 19.9642 40.1481 19.4054 40.4864 18.6943C40.524 18.9737 40.5491 19.1133 40.5491 19.2403C40.5741 20.2182 40.6618 21.2088 40.6242 22.1866L38.281 34.6449C37.4163 38.0611 36.2886 41.4011 35.2485 44.7665C34.835 46.0873 34.5342 47.4334 34.1834 48.7669L34.1708 48.7796ZM35.0731 51.0401L34.9603 50.9639L35.236 50.2527L35.3362 50.2908L35.0731 51.0274V51.0401ZM36.1006 53.58L36.2134 53.6562C35.9377 53.9864 35.662 54.3166 35.3863 54.6468L35.2736 54.5579C35.4239 54.1388 35.7873 53.8721 36.1006 53.58ZM35.3487 55.7517C35.8249 54.977 36.7397 54.7738 37.3913 54.1515C37.3286 54.1007 37.2534 54.0499 37.1783 53.9991C37.1031 53.961 37.0279 53.9356 36.89 53.8721C37.6544 52.9958 38.4188 52.1577 39.1456 51.2941C39.8849 50.4305 40.7495 49.7193 41.6643 49.0463C42.6668 48.3097 43.6066 47.4969 44.5965 46.7476C45.6616 45.9476 46.7393 45.1856 47.8169 44.4109C47.9798 44.2966 48.1553 44.195 48.2931 44.0553C48.8946 43.395 49.6089 42.8743 50.3482 42.379C51.288 41.7567 52.2027 41.0963 53.1426 40.4867C53.9696 39.9407 54.8217 39.42 55.6863 38.9247C56.4256 38.4929 57.19 38.0992 57.9544 37.6928C58.0547 37.642 58.1925 37.6293 58.4055 37.5785C58.2802 37.7563 58.2301 37.8579 58.1549 37.9214C57.3655 38.5945 56.5885 39.2803 55.774 39.928C54.9846 40.5629 54.1325 41.1344 53.3431 41.7821C51.476 43.3061 49.5963 44.83 47.7668 46.4048C46.8145 47.2175 45.9624 48.17 44.9975 48.9828C44.3083 49.567 43.5189 50.0241 42.7545 50.494C41.8899 51.0274 40.9876 51.4973 40.123 52.0307C39.3837 52.4879 38.682 52.9831 37.9677 53.4657C37.8675 53.5419 37.7672 53.6181 37.6419 53.7197C38.4188 54.0499 38.7947 53.2625 39.4087 53.1482C39.0328 53.7959 37.1281 55.0405 35.3487 55.739V55.7517ZM46 63.0412C42.6668 61.7205 39.5716 59.9171 36.5768 57.9614C40.0353 59.0536 43.0678 60.9458 46 63.0412ZM49.9096 60.4505C50.1978 60.5394 50.486 60.6283 50.7742 60.7426C48.3808 60.4886 46.0376 60.006 43.7194 59.3964C42.153 58.9774 40.6368 58.3932 39.0955 57.8852L39.1331 57.8217C40.0979 57.8979 41.0628 57.9614 42.0277 58.0503C42.2031 58.063 42.3786 58.0884 42.5415 58.1392C44.9975 58.9139 47.4536 59.6885 49.9096 60.4632V60.4505ZM57.2151 57.4788C54.1325 57.6312 51.0499 57.555 47.9673 57.4788C46.426 57.4407 44.8847 57.4915 43.3434 57.4788C42.5039 57.4788 41.6643 57.4788 40.8749 57.174C40.7871 57.1359 40.712 57.1105 40.6368 57.0724C40.5992 57.0597 40.5866 57.0089 40.5115 56.92C41.2633 56.8438 41.9901 56.7676 42.7044 56.6914C43.6442 56.5771 44.584 56.4247 45.5238 56.3485C46.3132 56.285 47.1027 56.2469 47.8921 56.285C49.7843 56.3739 51.6764 56.5263 53.5686 56.6279C54.9345 56.7041 56.2753 56.9708 57.6161 57.2121C57.6411 57.2121 57.6662 57.2756 57.7289 57.3645C57.5534 57.3899 57.3905 57.4407 57.2276 57.4407L57.2151 57.4788Z" fill="#B4846C"/>
<path d="M28.2329 72.3628C27.2429 71.7532 26.1903 71.2579 25.1628 70.6864C23.822 69.9499 22.381 69.8102 20.9023 69.9626C20.4261 70.0134 19.9625 70.2039 19.4863 70.3309C19.5114 70.4198 19.5239 70.5087 19.549 70.5848C19.8748 70.5848 20.1881 70.5848 20.5139 70.5848C23.2456 70.6864 25.664 71.5119 27.5437 73.62C28.1201 74.2677 28.7216 74.9027 29.2604 75.6012C30.6638 77.4045 32.0297 79.246 32.6813 81.5065C32.7064 81.5827 32.8192 81.6462 32.9445 81.7732C33.383 79.4365 32.6938 77.468 31.5034 75.6647C30.6388 74.3566 29.5737 73.1883 28.2203 72.3501L28.2329 72.3628Z" fill="#B4846C"/>
<path d="M40.8874 71.2324C38.8073 72.2738 37.078 73.7596 35.7873 75.7026C34.5844 77.4933 33.9077 79.4744 34.4841 81.7095C34.7974 80.973 35.0605 80.211 35.4365 79.4998C36.7647 76.998 38.5566 74.8518 40.524 72.8452C40.7495 72.6039 41.0002 72.3753 41.2884 72.223C43.1805 71.1943 45.1353 70.4069 47.3533 70.6101C47.5037 70.6228 47.654 70.5593 47.8044 70.5212V70.3053C47.3157 70.1783 46.8145 70.0259 46.3007 69.9497C44.3459 69.6703 42.6041 70.3688 40.8999 71.2197L40.8874 71.2324Z" fill="#B4846C"/>
<path d="M25.4623 75.2835C25.1866 75.1819 24.8357 75.2581 24.4473 75.2581C24.4849 76.1979 24.6854 76.4011 25.337 76.3249C25.5876 76.2995 25.8507 76.2233 25.8006 75.9185C25.763 75.6899 25.6252 75.347 25.4497 75.2835H25.4623Z" fill="#B4846C"/>
<path d="M41.8395 75.2835C41.664 75.347 41.5262 75.6772 41.4886 75.9185C41.4385 76.2233 41.7016 76.2995 41.9523 76.3249C42.6039 76.4011 42.8044 76.1852 42.8419 75.2581C42.4535 75.2581 42.1026 75.1819 41.8269 75.2835H41.8395Z" fill="#B4846C"/>
</svg>
