<svg width="15" height="15" viewBox="0 0 15 15" fill="none" xmlns="http://www.w3.org/2000/svg">
<path d="M7.25386 4.83618C5.92155 4.83618 4.83427 5.92347 4.83427 7.25581C4.83427 8.58816 5.92155 9.67545 7.25386 9.67545C8.58618 9.67545 9.67345 8.58816 9.67345 7.25581C9.67345 5.92347 8.58618 4.83618 7.25386 4.83618ZM14.5108 7.25581C14.5108 6.25383 14.5199 5.26093 14.4636 4.26077C14.4074 3.09905 14.1423 2.06803 13.2929 1.21853C12.4416 0.367206 11.4124 0.104005 10.2507 0.0477346C9.24871 -0.00853601 8.25582 0.000539915 7.25568 0.000539915C6.25372 0.000539915 5.26083 -0.00853601 4.26069 0.0477346C3.09899 0.104005 2.06799 0.369021 1.2185 1.21853C0.367199 2.06984 0.104003 3.09905 0.0477337 4.26077C-0.00853585 5.26275 0.000539905 6.25565 0.000539905 7.25581C0.000539905 8.25598 -0.00853585 9.2507 0.0477337 10.2509C0.104003 11.4126 0.369015 12.4436 1.2185 13.2931C2.06981 14.1444 3.09899 14.4076 4.26069 14.4639C5.26265 14.5202 6.25553 14.5111 7.25568 14.5111C8.25764 14.5111 9.25052 14.5202 10.2507 14.4639C11.4124 14.4076 12.4434 14.1426 13.2929 13.2931C14.1442 12.4418 14.4074 11.4126 14.4636 10.2509C14.5217 9.2507 14.5108 8.25779 14.5108 7.25581ZM7.25386 10.9787C5.19367 10.9787 3.531 9.31604 3.531 7.25581C3.531 5.19558 5.19367 3.53288 7.25386 3.53288C9.31405 3.53288 10.9767 5.19558 10.9767 7.25581C10.9767 9.31604 9.31405 10.9787 7.25386 10.9787ZM11.1292 4.24988C10.6482 4.24988 10.2597 3.86143 10.2597 3.3804C10.2597 2.89938 10.6482 2.51093 11.1292 2.51093C11.6102 2.51093 11.9987 2.89938 11.9987 3.3804C11.9988 3.49463 11.9764 3.60775 11.9328 3.71331C11.8891 3.81886 11.8251 3.91477 11.7443 3.99553C11.6636 4.0763 11.5676 4.14034 11.4621 4.18398C11.3565 4.22763 11.2434 4.25002 11.1292 4.24988Z" fill="#FEFAF7"/>
</svg>
